# xmcd
#
# Track frame offsets: 
#        150
#        10919
#        19396
#        29092
#        38705
#        49516
#        61156
#        71340
#        83488
#        93477
#        102915
#        115613
#        127079
#        138524
#        148130
#        160285
#        169319
#        182923
#        196729
#        208348
#        220371
#        234400
#        247112
#        255283
#        265495
#
# Disc length: 3660 seconds
#
# Revision: 0
# Processed by: cddbd v1.5.2PL0 Copyright (c) Steve Scherf et al.
# Submitted via: ExactAudioCopy v1.0b3
#
DISCID=6e0e4a19
DTITLE=Maddox Brothers And Sister Rose - From Dancefloor To Devotion
DYEAR=2009
DGENRE=Country
TTITLE0=Wild Wild Young Men
TTITLE1=My Little Baby
TTITLE2=Ugly And Slouchy
TTITLE3=Death Of Rock And Roll
TTITLE4=New Step It Up And Go
TTITLE5=Mean And Wicked Boogie
TTITLE6=Honky Tonkin'
TTITLE7=Move It On Over
TTITLE8=Sally Let Your Bangs Hang Down
TTITLE9=Shimmy Shakin' Daddy
TTITLE10=Small Town Mama
TTITLE11=That'll Learn Ya Durn Ya
TTITLE12=Hangover Blues
TTITLE13=I'll Fly Away
TTITLE14=Farther Along
TTITLE15=I'd Rather Have Jesus
TTITLE16=In The Land Where We'll Never Grow
TTITLE17=Tramp On The Street
TTITLE18=I Just Steal Away And Pray
TTITLE19=When God Dips His Love In My Heart
TTITLE20=The Unclouded Day
TTITLE21=Flowers For The Master's Bouquet
TTITLE22=Dust On The Bible
TTITLE23=I'll Be No Stranger There
TTITLE24=He Set Me Free
EXTD=
EXTT0=
EXTT1=
EXTT2=
EXTT3=
EXTT4=
EXTT5=
EXTT6=
EXTT7=
EXTT8=
EXTT9=
EXTT10=
EXTT11=
EXTT12=
EXTT13=
EXTT14=
EXTT15=
EXTT16=
EXTT17=
EXTT18=
EXTT19=
EXTT20=
EXTT21=
EXTT22=
EXTT23=
EXTT24=
PLAYORDER=
